<svg version="1.1" id="Layer_1" xmlns="http://www.w3.org/2000/svg" xmlns:xlink="http://www.w3.org/1999/xlink" x="0px" y="0px"
	 width="100%" viewBox="0 0 329 247" enable-background="new 0 0 329 247" xml:space="preserve">
<path fill="#000000" opacity="1.000000" stroke="none" 
	d="
M166.000000,248.000000 
	C111.059151,248.000000 56.118305,248.000000 1.000000,248.000000 
	C1.000000,167.645859 1.000000,87.291588 1.228553,6.125892 
	C2.030133,5.871948 2.603161,6.429429 3.115657,7.343046 
	C10.042613,18.063293 17.030102,28.427404 24.479851,38.874352 
	C45.621506,39.005489 66.300903,39.053787 87.148003,39.374611 
	C88.165634,37.957790 90.155647,35.735786 89.660072,34.675068 
	C87.897804,30.903154 85.288902,27.526794 83.000305,24.000282 
	C83.000000,23.999924 82.999405,23.999353 82.976501,23.639809 
	C81.644943,21.169315 80.336304,19.058365 79.015045,16.972919 
	C79.002426,16.998423 79.055084,16.976830 79.030670,16.611523 
	C76.337509,11.164143 73.668755,6.082071 71.000000,0.999999 
	C75.356903,1.000000 79.713799,1.000000 84.651367,1.334003 
	C90.810738,11.782329 96.304512,21.944759 101.997795,31.994165 
	C105.832214,38.762440 105.958290,38.691013 110.482338,39.078651 
	C129.227631,39.011463 147.508133,39.023602 165.788605,38.998886 
	C196.530014,38.957325 227.271393,38.892349 258.220276,38.910622 
	C258.427765,38.984016 258.864136,39.041466 258.912201,39.401924 
	C255.278534,45.832058 251.596817,51.901730 247.947113,57.982872 
	C247.979126,57.994347 247.945724,57.935108 247.617096,58.053040 
	C244.192978,62.174606 241.097488,66.178230 237.539490,70.114998 
	C229.270081,70.038330 221.461258,70.130417 213.656952,69.983025 
	C208.423767,69.884178 203.196976,69.445732 197.502747,69.113449 
	C194.052582,69.067833 191.066391,69.029175 188.081482,69.074455 
	C168.755753,69.367653 149.430313,69.679153 129.898605,69.674789 
	C128.287872,69.035645 126.883293,68.706360 124.495155,68.146477 
	C125.183205,75.865623 130.456436,81.049934 133.999847,87.004875 
	C134.001831,86.997559 133.987305,87.002556 134.020050,87.367813 
	C137.379868,93.661240 141.085312,99.416801 143.897141,105.580048 
	C145.684464,109.497688 148.233459,110.220116 151.898102,109.982826 
	C157.288681,109.633781 162.773773,109.199898 166.069931,115.359344 
	C167.097504,116.803261 168.003708,117.946808 168.938202,119.462372 
	C173.762939,127.854332 178.168488,136.146042 183.490448,143.800583 
	C187.162262,149.081741 187.875717,150.923706 184.325882,156.272644 
	C183.099884,158.119980 182.045944,160.081512 180.611969,162.180222 
	C177.528625,166.877838 174.746750,171.386093 171.662781,176.009857 
	C170.215973,175.384338 168.764603,174.878311 167.983353,173.858795 
	C165.530945,170.658432 163.330734,167.264816 161.019653,163.972824 
	C161.006470,163.999603 161.059525,163.972229 161.032196,163.643127 
	C160.331772,162.544662 159.658676,161.775314 158.991608,161.003891 
	C158.997635,161.001831 158.993530,161.013687 158.959869,160.653870 
	C157.941940,158.486313 157.130737,156.553711 155.935928,154.897934 
	C153.730957,151.842209 151.300903,148.948898 148.915558,145.687134 
	C148.557098,144.931290 148.247711,144.476257 147.899963,143.764633 
	C147.567673,143.363831 147.273743,143.219604 146.907074,142.858215 
	C146.834320,142.641052 146.652252,142.220718 146.643646,141.771667 
	C122.762451,141.275162 98.889862,141.227707 74.725060,141.198486 
	C74.607979,142.189041 74.783112,143.161377 74.971878,144.514465 
	C80.885002,156.644379 86.762886,168.404556 92.733788,180.117325 
	C93.121323,180.877548 94.224068,181.273163 95.328262,181.910400 
	C96.113678,181.937912 96.564949,181.893448 97.481003,181.919037 
	C106.958893,182.043365 115.971992,182.097610 125.087082,182.473450 
	C126.193001,184.060364 127.309143,185.252930 128.183716,186.602097 
	C138.091675,201.886673 148.066849,217.129501 157.783051,232.535492 
	C160.888367,237.459274 163.281174,242.832443 166.000000,248.000000 
M119.019379,87.981277 
	C119.019379,87.981277 119.079979,87.956093 118.987663,87.224983 
	C117.635605,84.464485 116.048286,81.791817 114.978333,78.925995 
	C112.405716,72.035370 108.208267,68.309288 100.342232,69.963402 
	C97.649124,70.529716 94.758713,70.157761 91.328552,70.079514 
	C90.900764,70.042145 90.472984,70.004768 89.687332,69.331581 
	C88.492188,69.274414 87.297050,69.217247 85.149773,69.016342 
	C72.749580,69.072266 60.349392,69.128189 47.069653,69.032387 
	C43.787170,69.191185 40.504688,69.349983 35.764259,69.579315 
	C44.796833,83.746826 52.884098,96.431633 61.487389,109.804268 
	C82.781219,109.863754 104.075081,109.950371 125.368843,109.930878 
	C127.060158,109.929329 128.750809,109.192741 130.441757,108.797737 
	C129.642014,106.836601 128.842270,104.875465 127.965248,102.228210 
	C126.667030,100.476105 125.368820,98.723991 123.981857,96.330330 
	C123.358711,95.539543 122.735565,94.748756 121.995346,93.266678 
	C121.280296,91.845421 120.565247,90.424171 119.905045,88.469986 
	C119.614601,88.285736 119.324158,88.101486 119.019379,87.981277 
z"/>
<path fill="#5271FD" opacity="1.000000" stroke="none" 
	d="
M168.909912,119.090363 
	C168.003708,117.946808 167.097504,116.803261 166.095306,114.975372 
	C164.792526,108.964279 161.869385,106.805794 156.380157,107.460411 
	C151.564072,108.034760 147.436096,107.278664 144.832489,102.634399 
	C141.903488,97.409737 138.922409,92.214279 136.314880,86.859375 
	C145.215256,83.413399 153.755508,82.037758 162.937195,84.671288 
	C166.756607,85.766800 171.204437,84.911324 175.342239,84.609825 
	C185.911652,83.839668 196.453949,82.612366 207.032883,82.085014 
	C215.506149,81.662636 224.017288,82.009926 232.511597,81.996292 
	C241.178513,81.982384 242.546097,80.149002 239.999893,71.995735 
	C240.003006,71.970230 240.015244,71.920731 240.204498,71.799370 
	C240.628723,71.486481 240.827057,71.262505 241.341766,70.952362 
	C242.810165,68.957077 243.925598,67.015495 245.245224,64.924896 
	C245.678787,64.528847 245.908157,64.281815 246.311737,63.779823 
	C246.668777,62.729664 246.851593,61.934467 247.224426,60.970963 
	C247.614029,60.531502 247.813660,60.260349 248.020584,59.646305 
	C248.000504,58.847313 247.973114,58.391209 247.945724,57.935108 
	C247.945724,57.935108 247.979126,57.994347 248.269241,57.857246 
	C254.638412,52.774311 258.692139,46.479416 261.042969,38.722549 
	C259.677246,37.933376 258.278778,37.028511 256.879517,37.027271 
	C207.906342,36.983868 158.933075,37.025486 109.621674,36.966599 
	C108.175453,35.733574 106.812347,34.743954 106.005783,33.416248 
	C103.274139,28.919659 100.685654,24.333103 98.142914,19.725500 
	C94.713165,13.510586 91.376572,7.244261 88.000000,0.999999 
	C168.666672,1.000000 249.333328,1.000000 330.000000,1.004092 
	C330.000000,2.338814 330.000000,3.669445 329.632996,5.500416 
	C326.555267,9.684901 323.844513,13.369045 320.827087,17.197872 
	C317.574677,21.289801 314.282135,25.030233 311.772888,29.237793 
	C308.787750,34.243378 306.475342,39.650154 303.678192,44.942894 
	C303.484955,45.002697 303.094330,45.107975 302.773193,45.201836 
	C301.428711,46.338894 300.207886,47.250999 299.414124,48.446632 
	C294.387726,56.017792 289.271362,63.539810 284.561584,71.306625 
	C281.707703,76.012985 279.531586,81.130371 276.911743,86.377129 
	C275.457642,88.777763 274.142761,90.864357 272.506866,93.044907 
	C270.315582,95.411880 267.848785,97.417854 266.688843,100.008858 
	C263.436005,107.274948 257.531738,108.069008 250.660568,107.967560 
	C237.427292,107.772163 224.188248,107.967186 210.599670,108.046165 
	C206.913559,111.286140 207.634628,113.371719 212.992584,116.003281 
	C213.000610,115.998810 212.991287,116.013901 212.979950,116.396301 
	C215.307617,123.967842 218.910233,130.319183 225.276459,135.058594 
	C225.804428,135.307983 225.971741,135.572250 226.026611,136.210388 
	C226.276535,137.030746 226.510300,137.558624 226.813263,138.297668 
	C226.882462,138.508850 226.998062,138.938004 227.126938,139.160248 
	C227.530273,139.581940 227.804733,139.781403 228.047852,139.985809 
	C228.016510,139.990768 228.042999,139.933090 228.034470,140.323029 
	C228.473053,142.289261 228.436920,144.364395 229.455307,145.350937 
	C232.900894,148.688690 232.654968,152.271271 230.925201,156.441437 
	C230.497864,157.118378 230.180252,157.546219 229.545029,158.088959 
	C226.272537,162.311844 223.125595,166.298645 220.429886,170.570190 
	C218.615997,173.444489 217.440063,176.721375 215.681900,179.975525 
	C214.544876,181.411346 213.704666,182.689758 212.546783,184.080872 
	C209.915939,187.564987 207.513672,190.879227 205.307938,194.319504 
	C200.482681,201.845428 195.757187,209.435333 190.967773,217.228760 
	C190.944580,217.458389 190.897461,217.917572 190.710876,218.138657 
	C190.318497,218.895355 190.112717,219.430969 189.662170,220.191925 
	C187.210876,223.241013 184.669632,225.868652 182.874298,228.933258 
	C180.003769,233.833130 177.628433,239.023087 174.907669,244.392410 
	C174.181046,245.796265 173.590515,246.898132 173.000000,248.000000 
	C171.933334,248.000000 170.866653,248.000000 169.381012,247.630035 
	C167.082703,243.799500 165.375977,240.231049 163.292725,236.897934 
	C156.092438,225.377945 148.862900,213.873474 141.443741,202.494003 
	C136.478943,194.879013 131.173843,187.485886 125.665176,179.779617 
	C117.535835,179.674805 109.762337,179.783875 101.669678,179.882462 
	C100.924797,179.865128 100.499084,179.858261 99.912704,179.565460 
	C97.488327,177.528641 95.224602,175.777756 92.973770,174.013031 
	C92.986671,173.999191 92.971977,174.026703 92.948120,173.694321 
	C92.288582,172.555222 91.652908,171.748489 90.830772,170.658325 
	C87.613586,164.704208 84.499222,159.076111 81.584412,153.346497 
	C79.909302,150.053772 78.557602,146.596542 77.522888,143.174896 
	C98.183266,143.110565 118.381241,143.115158 138.578690,143.016266 
	C140.832260,143.005234 143.082947,142.406067 145.553711,142.093231 
	C146.067230,142.133179 146.360489,142.171143 146.652252,142.220718 
	C146.652252,142.220718 146.834320,142.641052 146.998199,143.076981 
	C147.349060,143.791916 147.607788,143.961349 147.938309,144.021210 
	C148.247711,144.476257 148.557098,144.931290 148.765961,145.935013 
	C152.108124,151.327026 155.550827,156.170349 158.993530,161.013687 
	C158.993530,161.013687 158.997635,161.001831 158.999542,161.342117 
	C159.687469,162.445679 160.373505,163.208954 161.059525,163.972229 
	C161.059525,163.972229 161.006470,163.999603 161.027832,164.348953 
	C163.301468,168.825378 165.386856,173.056595 167.871735,177.038498 
	C169.251999,179.250351 171.287720,179.467499 173.271500,176.836517 
	C176.464462,171.809296 179.389038,166.988464 182.619751,162.037567 
	C184.166473,160.179581 185.310287,158.371277 186.666412,156.739380 
	C190.230881,152.449982 189.916168,148.553513 186.333298,144.285934 
	C183.898941,141.386322 182.378494,137.739899 180.194641,134.604904 
	C176.540176,129.358780 172.682220,124.254402 168.909912,119.090363 
z"/>
<path fill="#000000" opacity="1.000000" stroke="none" 
	d="
M226.010468,135.917923 
	C225.971741,135.572250 225.804428,135.307983 225.234131,134.700180 
	C220.970230,128.188141 216.980759,122.101021 212.991287,116.013901 
	C212.991287,116.013901 213.000610,115.998810 212.976898,115.639130 
	C212.312576,113.548988 211.671967,111.818535 211.484100,110.049683 
	C214.978378,109.956413 218.019897,109.901543 221.522568,109.915237 
	C233.628616,109.939774 245.273499,109.895752 257.335022,109.904922 
	C259.620728,109.639862 262.443207,109.980461 263.196198,108.890900 
	C266.719025,103.793381 269.671600,98.301765 272.827911,92.950958 
	C274.142761,90.864357 275.457642,88.777763 277.224060,86.236679 
	C283.578491,76.873199 289.595551,68.036880 295.335999,59.024418 
	C298.184326,54.552597 300.524353,49.757061 303.094330,45.107979 
	C303.094330,45.107975 303.484955,45.002697 304.044556,44.951042 
	C309.969055,36.821316 315.377289,28.771259 320.638367,20.626150 
	C321.229767,19.710497 320.988770,18.257185 321.133759,17.053192 
	C323.844513,13.369045 326.555267,9.684901 329.632996,6.000379 
	C330.000000,86.578156 330.000000,167.156311 330.000000,248.000000 
	C277.979401,248.000000 225.958359,248.000000 173.468658,248.000000 
	C173.590515,246.898132 174.181046,245.796265 175.221161,244.248596 
	C180.827713,235.881332 185.984680,227.959885 191.368042,219.958282 
	C191.865829,219.681137 192.041000,219.419678 192.401215,218.959900 
	C192.821533,218.228256 192.960556,217.630447 193.410034,216.884857 
	C197.467072,210.893982 201.387085,205.152985 204.906250,199.175964 
	C207.805511,194.251831 210.229721,189.048019 212.864471,183.968155 
	C213.704666,182.689758 214.544876,181.411346 216.040070,180.034302 
	C219.917297,175.375641 223.318161,170.928116 226.289322,166.209991 
	C227.865448,163.707138 228.695679,160.734558 229.862640,157.974045 
	C230.180252,157.546219 230.497864,157.118378 231.245270,156.486771 
	C234.873215,154.639664 236.628662,152.453323 234.255676,148.903488 
	C232.234589,145.880066 230.117584,142.920761 228.042999,139.933090 
	C228.042999,139.933090 228.016510,139.990768 227.969910,139.722290 
	C227.614899,139.281891 227.306473,139.109940 226.998062,138.938004 
	C226.998062,138.938004 226.882462,138.508850 226.903931,137.979279 
	C226.620422,136.939102 226.315445,136.428513 226.010468,135.917923 
z"/>
<path fill="#5271FD" opacity="1.000000" stroke="none" 
	d="
M3.176189,6.986909 
	C2.603161,6.429429 2.030133,5.871948 1.228553,5.657234 
	C1.000000,4.343387 1.000000,2.686773 1.000000,1.000000 
	C23.354219,1.000000 45.708450,1.000000 68.532974,1.364302 
	C72.353867,6.811346 75.704475,11.894088 79.055084,16.976830 
	C79.055084,16.976830 79.002426,16.998423 79.020340,17.346016 
	C80.358635,19.795523 81.679016,21.897438 82.999405,23.999353 
	C82.999405,23.999353 83.000000,23.999924 82.991013,24.395447 
	C84.645927,28.824347 86.309837,32.857723 87.507607,36.912903 
	C66.351547,36.938412 45.661625,36.942120 24.747566,36.701599 
	C18.577410,27.484186 12.675638,18.480963 6.629906,9.575473 
	C5.865741,8.449842 4.345914,7.837214 3.176189,6.986909 
z"/>
<path fill="#576CCD" opacity="1.000000" stroke="none" 
	d="
M100.073364,179.851395 
	C100.499084,179.858261 100.924797,179.865128 102.137680,179.912018 
	C110.623566,179.965866 118.322296,179.979675 126.021019,179.993500 
	C131.173843,187.485886 136.478943,194.879013 141.443741,202.494003 
	C148.862900,213.873474 156.092438,225.377945 163.292725,236.897934 
	C165.375977,240.231049 167.082703,243.799500 168.981018,247.630035 
	C168.250000,248.000000 167.500000,248.000000 166.375000,248.000000 
	C163.281174,242.832443 160.888367,237.459274 157.783051,232.535492 
	C148.066849,217.129501 138.091675,201.886673 128.183716,186.602097 
	C127.309143,185.252930 126.193001,184.060364 124.925095,182.064285 
	C120.578835,181.232208 116.493172,180.978134 112.415100,181.068130 
	C107.278900,181.181442 102.148895,181.575851 97.016220,181.848969 
	C96.564949,181.893448 96.113678,181.937912 95.331604,181.609863 
	C95.004272,180.836624 95.007736,180.435898 95.432037,180.028351 
	C97.259712,179.964798 98.666534,179.908096 100.073364,179.851395 
z"/>
<path fill="#576CCB" opacity="1.000000" stroke="none" 
	d="
M87.625000,0.999999 
	C91.376572,7.244261 94.713165,13.510586 98.142914,19.725500 
	C100.685654,24.333103 103.274139,28.919659 106.005783,33.416248 
	C106.812347,34.743954 108.175453,35.733574 109.635246,37.206646 
	C109.986977,37.535164 110.011482,38.016434 110.014175,38.297668 
	C110.017090,38.766407 110.017319,38.953907 110.017540,39.141407 
	C105.958290,38.691013 105.832214,38.762440 101.997795,31.994165 
	C96.304512,21.944759 90.810738,11.782329 85.116020,1.334003 
	C85.750000,1.000000 86.500000,1.000000 87.625000,0.999999 
z"/>
<path fill="#546BD0" opacity="1.000000" stroke="none" 
	d="
M79.030670,16.611523 
	C75.704475,11.894088 72.353867,6.811346 69.001633,1.364302 
	C69.444443,1.000000 69.888893,1.000000 70.666672,0.999999 
	C73.668755,6.082071 76.337509,11.164143 79.030670,16.611523 
z"/>
<path fill="#5271FD" opacity="1.000000" stroke="none" 
	d="
M122.112419,93.957970 
	C122.735565,94.748756 123.358711,95.539543 123.864571,96.898415 
	C124.460251,100.926491 125.173218,104.386482 125.424706,107.847954 
	C104.010864,107.825874 83.058502,107.802315 62.043907,107.440506 
	C54.887444,95.552452 47.793201,84.002632 40.698959,72.452820 
	C41.075897,72.007095 41.452835,71.561378 41.829773,71.115654 
	C55.877102,71.115654 69.924431,71.115654 84.108986,71.419327 
	C85.751640,73.825981 87.771568,75.732544 88.663727,78.069633 
	C91.106010,84.467323 92.647911,85.635757 99.350121,83.868393 
	C104.656853,82.469009 109.015831,83.741379 113.096413,87.219162 
	C115.946182,89.647964 119.096397,91.724243 122.112419,93.957970 
z"/>
<path fill="#506CF3" opacity="1.000000" stroke="none" 
	d="
M239.996780,72.021240 
	C242.546097,80.149002 241.178513,81.982384 232.511597,81.996292 
	C224.017288,82.009926 215.506149,81.662636 207.032883,82.085014 
	C196.453949,82.612366 185.911652,83.839668 175.342239,84.609825 
	C171.204437,84.911324 166.756607,85.766800 162.937195,84.671288 
	C153.755508,82.037758 145.215256,83.413399 135.985794,86.846260 
	C134.866318,86.987442 134.426819,86.995003 133.987305,87.002556 
	C133.987305,87.002556 134.001831,86.997559 134.020264,86.593231 
	C132.344208,82.235466 130.746399,78.236511 128.914749,74.347687 
	C127.989288,72.382851 126.101074,70.474556 130.104767,69.984650 
	C149.430313,69.679153 168.755753,69.367653 188.081482,69.074455 
	C191.066391,69.029175 194.052582,69.067833 197.653381,69.435257 
	C199.848297,70.505043 201.419800,71.793472 203.009064,71.815788 
	C214.685226,71.979683 226.364914,71.890327 238.368561,71.908539 
	C239.127991,71.964615 239.562393,71.992928 239.996780,72.021240 
z"/>
<path fill="#546FF5" opacity="1.000000" stroke="none" 
	d="
M122.053879,93.612320 
	C119.096397,91.724243 115.946182,89.647964 113.096413,87.219162 
	C109.015831,83.741379 104.656853,82.469009 99.350121,83.868393 
	C92.647911,85.635757 91.106010,84.467323 88.663727,78.069633 
	C87.771568,75.732544 85.751640,73.825981 84.510429,71.388275 
	C86.531502,70.691490 88.288345,70.329445 90.045197,69.967392 
	C90.472984,70.004768 90.900764,70.042145 91.846786,70.468269 
	C94.592812,71.238655 96.816307,71.918877 99.049103,71.950867 
	C109.406143,72.099236 109.630203,72.358177 113.820152,81.735260 
	C114.884285,84.116798 117.290459,85.898682 119.079979,87.956093 
	C119.079979,87.956093 119.019379,87.981277 119.129990,88.153000 
	C119.421700,88.570663 119.624893,88.796722 119.850197,89.002922 
	C120.565247,90.424171 121.280296,91.845421 122.053879,93.612320 
z"/>
<path fill="#556BD5" opacity="1.000000" stroke="none" 
	d="
M89.866264,69.649490 
	C88.288345,70.329445 86.531502,70.691490 84.373207,71.084595 
	C69.924431,71.115654 55.877102,71.115654 41.829773,71.115654 
	C41.452835,71.561378 41.075897,72.007095 40.698959,72.452820 
	C47.793201,84.002632 54.887444,95.552452 61.836838,107.650848 
	C61.451778,108.505096 61.211571,108.810768 60.971359,109.116440 
	C52.884098,96.431633 44.796833,83.746826 35.764259,69.579315 
	C40.504688,69.349983 43.787170,69.191185 47.860619,69.341446 
	C58.392693,69.763771 68.133774,69.943352 77.874931,69.947845 
	C80.617134,69.949112 83.359573,69.436813 86.101906,69.160065 
	C87.297050,69.217247 88.492188,69.274414 89.866264,69.649490 
z"/>
<path fill="#4A68DD" opacity="1.000000" stroke="none" 
	d="
M110.011482,38.016434 
	C110.011482,38.016434 109.986977,37.535164 109.973404,37.295113 
	C158.933075,37.025486 207.906342,36.983868 256.879517,37.027271 
	C258.278778,37.028511 259.677246,37.933376 260.685272,38.723259 
	C259.817688,39.033569 259.340912,39.037518 258.864136,39.041466 
	C258.864136,39.041466 258.427765,38.984016 257.852112,38.720932 
	C255.462067,38.307369 253.647720,38.026279 251.833221,38.025486 
	C204.559326,38.004742 157.285400,38.013096 110.011482,38.016434 
z"/>
<path fill="#7388DA" opacity="1.000000" stroke="none" 
	d="
M110.014175,38.297668 
	C157.285400,38.013096 204.559326,38.004742 251.833221,38.025486 
	C253.647720,38.026279 255.462067,38.307369 257.644653,38.647537 
	C227.271393,38.892349 196.530014,38.957325 165.788605,38.998886 
	C147.508133,39.023602 129.227631,39.011463 110.482338,39.078651 
	C110.017319,38.953907 110.017090,38.766407 110.014175,38.297668 
z"/>
<path fill="#475EBB" opacity="1.000000" stroke="none" 
	d="
M61.229374,109.460358 
	C61.211571,108.810768 61.451778,108.505096 61.899063,107.989090 
	C83.058502,107.802315 104.010864,107.825874 125.760468,107.859100 
	C127.052635,106.217278 127.547577,104.565804 128.042511,102.914330 
	C128.842270,104.875465 129.642014,106.836601 130.441757,108.797745 
	C128.750809,109.192741 127.060158,109.929329 125.368843,109.930878 
	C104.075081,109.950371 82.781219,109.863754 61.229374,109.460358 
z"/>
<path fill="#576CCB" opacity="1.000000" stroke="none" 
	d="
M168.938202,119.462379 
	C172.682220,124.254402 176.540176,129.358780 180.194641,134.604904 
	C182.378494,137.739899 183.898941,141.386322 186.333298,144.285934 
	C189.916168,148.553513 190.230881,152.449982 186.666412,156.739380 
	C185.310287,158.371277 184.166473,160.179581 182.268738,161.989380 
	C181.378876,162.044495 181.146149,162.017700 180.913422,161.990875 
	C182.045944,160.081512 183.099884,158.119980 184.325882,156.272644 
	C187.875717,150.923706 187.162262,149.081741 183.490448,143.800583 
	C178.168488,136.146042 173.762939,127.854332 168.938202,119.462379 
z"/>
<path fill="#576CCB" opacity="1.000000" stroke="none" 
	d="
M134.020050,87.367813 
	C134.426819,86.995003 134.866318,86.987442 135.634918,86.993004 
	C138.922409,92.214279 141.903488,97.409737 144.832489,102.634399 
	C147.436096,107.278664 151.564072,108.034760 156.380157,107.460411 
	C161.869385,106.805794 164.792526,108.964279 165.973907,114.675011 
	C162.773773,109.199898 157.288681,109.633781 151.898102,109.982826 
	C148.233459,110.220116 145.684464,109.497688 143.897141,105.580048 
	C141.085312,99.416801 137.379868,93.661240 134.020050,87.367813 
z"/>
<path fill="#6377D0" opacity="1.000000" stroke="none" 
	d="
M95.011200,180.035187 
	C95.007736,180.435898 95.004272,180.836624 94.997467,181.537872 
	C94.224068,181.273163 93.121323,180.877548 92.733788,180.117325 
	C86.762886,168.404556 80.885002,156.644379 75.195419,144.322449 
	C75.956985,143.570923 76.508659,143.392151 77.060326,143.213364 
	C78.557602,146.596542 79.909302,150.053772 81.584412,153.346497 
	C84.499222,159.076111 87.613586,164.704208 90.881744,170.974487 
	C91.736786,172.391647 92.354385,173.209183 92.971977,174.026703 
	C92.971977,174.026703 92.986671,173.999191 92.978981,174.382843 
	C93.651260,176.522720 94.331230,178.278961 95.011200,180.035187 
z"/>
<path fill="#5064D1" opacity="1.000000" stroke="none" 
	d="
M238.043503,71.880760 
	C226.364914,71.890327 214.685226,71.979683 203.009064,71.815788 
	C201.419800,71.793472 199.848297,70.505043 198.117950,69.481033 
	C203.196976,69.445732 208.423767,69.884178 213.656952,69.983025 
	C221.461258,70.130417 229.270081,70.038330 237.544540,70.398911 
	C238.022568,71.126717 238.033035,71.503738 238.043503,71.880760 
z"/>
<path fill="#576CCD" opacity="1.000000" stroke="none" 
	d="
M3.115657,7.343046 
	C4.345914,7.837214 5.865741,8.449842 6.629906,9.575473 
	C12.675638,18.480963 18.577410,27.484186 24.759855,36.973122 
	C25.007830,37.669323 25.019384,37.849770 24.852901,38.144615 
	C24.437172,38.413555 24.218081,38.591057 24.017590,38.791515 
	C17.030102,28.427404 10.042613,18.063293 3.115657,7.343046 
z"/>
<path fill="#556BD5" opacity="1.000000" stroke="none" 
	d="
M119.033821,87.590538 
	C117.290459,85.898682 114.884285,84.116798 113.820152,81.735260 
	C109.630203,72.358177 109.406143,72.099236 99.049103,71.950867 
	C96.816307,71.918877 94.592812,71.238655 92.161743,70.535751 
	C94.758713,70.157761 97.649124,70.529716 100.342232,69.963402 
	C108.208267,68.309288 112.405716,72.035370 114.978333,78.925995 
	C116.048286,81.791817 117.635605,84.464485 119.033821,87.590538 
z"/>
<path fill="#4560C7" opacity="1.000000" stroke="none" 
	d="
M77.522888,143.174896 
	C76.508659,143.392151 75.956985,143.570923 75.181778,143.941711 
	C74.783112,143.161377 74.607979,142.189041 75.084030,141.400024 
	C78.707581,141.722519 81.679619,141.973862 84.652374,141.982803 
	C104.879814,142.043640 125.107414,142.053391 145.334961,142.079651 
	C143.082947,142.406067 140.832260,143.005234 138.578690,143.016266 
	C118.381241,143.115158 98.183266,143.110565 77.522888,143.174896 
z"/>
<path fill="#7A91D8" opacity="1.000000" stroke="none" 
	d="
M145.553711,142.093231 
	C125.107414,142.053391 104.879814,142.043640 84.652374,141.982803 
	C81.679619,141.973862 78.707581,141.722519 75.376244,141.381805 
	C98.889862,141.227707 122.762451,141.275162 146.643646,141.771667 
	C146.360489,142.171143 146.067230,142.133179 145.553711,142.093231 
z"/>
<path fill="#7388DA" opacity="1.000000" stroke="none" 
	d="
M24.479851,38.874352 
	C24.218081,38.591057 24.437172,38.413555 25.317841,38.135796 
	C46.285381,38.027977 66.609940,38.043369 86.940323,38.319839 
	C86.957527,38.754639 86.968910,38.928360 86.980293,39.102085 
	C66.300903,39.053787 45.621506,39.005489 24.479851,38.874352 
z"/>
<path fill="#576CCB" opacity="1.000000" stroke="none" 
	d="
M129.898605,69.674789 
	C126.101074,70.474556 127.989288,72.382851 128.914749,74.347687 
	C130.746399,78.236511 132.344208,82.235466 134.018280,86.600540 
	C130.456436,81.049934 125.183205,75.865623 124.495155,68.146477 
	C126.883293,68.706360 128.287872,69.035645 129.898605,69.674789 
z"/>
<path fill="#576CCB" opacity="1.000000" stroke="none" 
	d="
M258.912201,39.401928 
	C259.340912,39.037518 259.817688,39.033569 260.652161,39.028908 
	C258.692139,46.479416 254.638412,52.774311 248.237213,57.845772 
	C251.596817,51.901730 255.278534,45.832058 258.912201,39.401928 
z"/>
<path fill="#5064D1" opacity="1.000000" stroke="none" 
	d="
M180.611969,162.180237 
	C181.146149,162.017700 181.378876,162.044495 181.962585,162.119461 
	C179.389038,166.988464 176.464462,171.809296 173.079437,176.662476 
	C172.400940,176.427994 172.182907,176.161179 171.964874,175.894363 
	C174.746750,171.386093 177.528625,166.877838 180.611969,162.180237 
z"/>
<path fill="#AABBFF" opacity="1.000000" stroke="none" 
	d="
M85.625839,69.088203 
	C83.359573,69.436813 80.617134,69.949112 77.874931,69.947845 
	C68.133774,69.943352 58.392693,69.763771 48.300392,69.417313 
	C60.349392,69.128189 72.749580,69.072266 85.625839,69.088203 
z"/>
<path fill="#546BD0" opacity="1.000000" stroke="none" 
	d="
M158.959869,160.653870 
	C155.550827,156.170349 152.108124,151.327026 148.815033,146.235809 
	C151.300903,148.948898 153.730957,151.842209 155.935928,154.897934 
	C157.130737,156.553711 157.941940,158.486313 158.959869,160.653870 
z"/>
<path fill="#576CCB" opacity="1.000000" stroke="none" 
	d="
M238.368561,71.908539 
	C238.033035,71.503738 238.022568,71.126717 238.007050,70.465775 
	C241.097488,66.178230 244.192978,62.174606 247.617096,58.053040 
	C247.973114,58.391209 248.000504,58.847313 247.831268,59.814240 
	C247.434555,60.596466 247.234482,60.867867 247.034424,61.139267 
	C246.851593,61.934467 246.668777,62.729664 246.098892,63.920738 
	C245.488220,64.569046 245.264618,64.821480 245.041031,65.073921 
	C243.925598,67.015495 242.810165,68.957077 241.160294,71.083847 
	C240.394028,71.459755 240.190491,71.676987 240.015244,71.920731 
	C240.015244,71.920731 240.003006,71.970230 239.999893,71.995735 
	C239.562393,71.992928 239.127991,71.964615 238.368561,71.908539 
z"/>
<path fill="#546BD0" opacity="1.000000" stroke="none" 
	d="
M171.662781,176.009857 
	C172.182907,176.161179 172.400940,176.427994 172.811035,176.868866 
	C171.287720,179.467499 169.251999,179.250351 167.871735,177.038498 
	C165.386856,173.056595 163.301468,168.825378 161.041016,164.322174 
	C163.330734,167.264816 165.530945,170.658432 167.983353,173.858795 
	C168.764603,174.878311 170.215973,175.384338 171.662781,176.009857 
z"/>
<path fill="#546BD0" opacity="1.000000" stroke="none" 
	d="
M87.148003,39.374611 
	C86.968910,38.928360 86.957527,38.754639 87.138634,38.147720 
	C87.545319,37.440048 87.759529,37.165573 87.973740,36.891102 
	C86.309837,32.857723 84.645927,28.824347 82.991318,24.395805 
	C85.288902,27.526794 87.897804,30.903154 89.660072,34.675068 
	C90.155647,35.735786 88.165634,37.957790 87.148003,39.374611 
z"/>
<path fill="#FFFFFF" opacity="1.000000" stroke="none" 
	d="
M97.481003,181.919037 
	C102.148895,181.575851 107.278900,181.181442 112.415100,181.068130 
	C116.493172,180.978134 120.578835,181.232208 124.823112,181.742676 
	C115.971992,182.097610 106.958893,182.043365 97.481003,181.919037 
z"/>
<path fill="#556BD5" opacity="1.000000" stroke="none" 
	d="
M128.003876,102.571274 
	C127.547577,104.565804 127.052635,106.217278 126.221939,107.857620 
	C125.173218,104.386482 124.460251,100.926491 123.908943,97.219193 
	C125.368820,98.723991 126.667030,100.476105 128.003876,102.571274 
z"/>
<path fill="#546BD0" opacity="1.000000" stroke="none" 
	d="
M82.976501,23.639809 
	C81.679016,21.897438 80.358635,19.795523 79.032959,17.320511 
	C80.336304,19.058365 81.644943,21.169315 82.976501,23.639809 
z"/>
<path fill="#546BD0" opacity="1.000000" stroke="none" 
	d="
M161.032196,163.643127 
	C160.373505,163.208954 159.687469,162.445679 158.993515,161.344177 
	C159.658676,161.775314 160.331772,162.544662 161.032196,163.643127 
z"/>
<path fill="#556BD5" opacity="1.000000" stroke="none" 
	d="
M119.877625,88.736450 
	C119.624893,88.796722 119.421700,88.570663 119.137161,88.120987 
	C119.324158,88.101486 119.614601,88.285736 119.877625,88.736450 
z"/>
<path fill="#4560C7" opacity="1.000000" stroke="none" 
	d="
M147.899963,143.764633 
	C147.607788,143.961349 147.349060,143.791916 147.070953,143.294159 
	C147.273743,143.219604 147.567673,143.363831 147.899963,143.764633 
z"/>
<path fill="#4C61C3" opacity="1.000000" stroke="none" 
	d="
M221.061417,109.846680 
	C218.019897,109.901543 214.978378,109.956413 211.469666,109.701683 
	C210.985504,108.928162 210.968552,108.464233 210.951599,108.000313 
	C224.188248,107.967186 237.427292,107.772163 250.660568,107.967560 
	C257.531738,108.069008 263.436005,107.274948 266.688843,100.008858 
	C267.848785,97.417854 270.315582,95.411880 272.506866,93.044907 
	C269.671600,98.301765 266.719025,103.793381 263.196198,108.890900 
	C262.443207,109.980461 259.620728,109.639862 257.023132,109.636215 
	C248.140610,109.217873 239.986145,109.027626 231.832825,109.068123 
	C228.241165,109.085953 224.651810,109.572784 221.061417,109.846680 
z"/>
<path fill="#576CCD" opacity="1.000000" stroke="none" 
	d="
M302.773193,45.201839 
	C300.524353,49.757061 298.184326,54.552597 295.335999,59.024418 
	C289.595551,68.036880 283.578491,76.873199 277.363281,85.922646 
	C279.531586,81.130371 281.707703,76.012985 284.561584,71.306625 
	C289.271362,63.539810 294.387726,56.017792 299.414124,48.446632 
	C300.207886,47.250999 301.428711,46.338894 302.773193,45.201839 
z"/>
<path fill="#4F67D3" opacity="1.000000" stroke="none" 
	d="
M212.546783,184.080872 
	C210.229721,189.048019 207.805511,194.251831 204.906250,199.175964 
	C201.387085,205.152985 197.467072,210.893982 193.058731,216.873657 
	C191.928299,217.006516 191.459610,217.002808 190.990936,216.999115 
	C195.757187,209.435333 200.482681,201.845428 205.307938,194.319504 
	C207.513672,190.879227 209.915939,187.564987 212.546783,184.080872 
z"/>
<path fill="#5B70CD" opacity="1.000000" stroke="none" 
	d="
M320.827087,17.197876 
	C320.988770,18.257185 321.229767,19.710497 320.638367,20.626150 
	C315.377289,28.771259 309.969055,36.821316 304.237793,44.891235 
	C306.475342,39.650154 308.787750,34.243378 311.772888,29.237793 
	C314.282135,25.030233 317.574677,21.289801 320.827087,17.197876 
z"/>
<path fill="#576CCD" opacity="1.000000" stroke="none" 
	d="
M191.141663,220.038437 
	C185.984680,227.959885 180.827713,235.881332 175.357254,243.946594 
	C177.628433,239.023087 180.003769,233.833130 182.874298,228.933258 
	C184.669632,225.868652 187.210876,223.241013 189.971313,220.210022 
	C190.730698,220.014648 190.936172,220.026550 191.141663,220.038437 
z"/>
<path fill="#546BD0" opacity="1.000000" stroke="none" 
	d="
M229.545013,158.088959 
	C228.695679,160.734558 227.865448,163.707138 226.289322,166.209991 
	C223.318161,170.928116 219.917297,175.375641 216.336884,179.876892 
	C217.440063,176.721375 218.615997,173.444489 220.429886,170.570190 
	C223.125595,166.298645 226.272537,162.311844 229.545013,158.088959 
z"/>
<path fill="#576CCD" opacity="1.000000" stroke="none" 
	d="
M212.979950,116.396301 
	C216.980759,122.101021 220.970230,128.188141 225.002045,134.633667 
	C218.910233,130.319183 215.307617,123.967842 212.979950,116.396301 
z"/>
<path fill="#5B70CD" opacity="1.000000" stroke="none" 
	d="
M228.034470,140.323029 
	C230.117584,142.920761 232.234589,145.880066 234.255676,148.903488 
	C236.628662,152.453323 234.873215,154.639664 231.354980,156.237640 
	C232.654968,152.271271 232.900894,148.688690 229.455307,145.350937 
	C228.436920,144.364395 228.473053,142.289261 228.034470,140.323029 
z"/>
<path fill="#4C6BEB" opacity="1.000000" stroke="none" 
	d="
M125.665176,179.779633 
	C118.322296,179.979675 110.623566,179.965866 102.456833,179.922501 
	C109.762337,179.783875 117.535835,179.674805 125.665176,179.779633 
z"/>
<path fill="#576CCD" opacity="1.000000" stroke="none" 
	d="
M210.599670,108.046165 
	C210.968552,108.464233 210.985504,108.928162 211.016907,109.740082 
	C211.671967,111.818535 212.312576,113.548988 212.968872,115.643593 
	C207.634628,113.371719 206.913559,111.286140 210.599670,108.046165 
z"/>
<path fill="#4C6BEB" opacity="1.000000" stroke="none" 
	d="
M95.432037,180.028351 
	C94.331230,178.278961 93.651260,176.522720 92.966080,174.396698 
	C95.224602,175.777756 97.488327,177.528641 99.912704,179.565460 
	C98.666534,179.908096 97.259712,179.964798 95.432037,180.028351 
z"/>
<path fill="#4C6BEB" opacity="1.000000" stroke="none" 
	d="
M92.948120,173.694321 
	C92.354385,173.209183 91.736786,172.391647 91.068214,171.257950 
	C91.652908,171.748489 92.288582,172.555222 92.948120,173.694321 
z"/>
<path fill="#576CCD" opacity="1.000000" stroke="none" 
	d="
M190.967758,217.228745 
	C191.459610,217.002808 191.928299,217.006516 192.748276,217.021423 
	C192.960556,217.630447 192.821533,218.228256 192.181244,218.782410 
	C191.419159,218.465012 191.158310,218.191299 190.897461,217.917572 
	C190.897461,217.917572 190.944580,217.458389 190.967758,217.228745 
z"/>
<path fill="#4F67D3" opacity="1.000000" stroke="none" 
	d="
M190.710876,218.138657 
	C191.158310,218.191299 191.419159,218.465012 191.899963,218.916245 
	C192.041000,219.419678 191.865829,219.681137 191.368042,219.958282 
	C190.936172,220.026550 190.730698,220.014648 190.216064,219.984665 
	C190.112717,219.430969 190.318497,218.895355 190.710876,218.138657 
z"/>
<path fill="#5B70CD" opacity="1.000000" stroke="none" 
	d="
M226.026611,136.210388 
	C226.315445,136.428513 226.620422,136.939102 226.834732,137.768097 
	C226.510300,137.558624 226.276535,137.030746 226.026611,136.210388 
z"/>
<path fill="#5064D1" opacity="1.000000" stroke="none" 
	d="
M240.204498,71.799370 
	C240.190491,71.676987 240.394028,71.459755 240.807312,71.137558 
	C240.827057,71.262505 240.628723,71.486481 240.204498,71.799370 
z"/>
<path fill="#5064D1" opacity="1.000000" stroke="none" 
	d="
M245.245224,64.924896 
	C245.264618,64.821480 245.488220,64.569046 245.924683,64.175697 
	C245.908157,64.281815 245.678787,64.528847 245.245224,64.924896 
z"/>
<path fill="#5064D1" opacity="1.000000" stroke="none" 
	d="
M247.224426,60.970963 
	C247.234482,60.867867 247.434555,60.596466 247.823944,60.157131 
	C247.813660,60.260349 247.614029,60.531502 247.224426,60.970963 
z"/>
<path fill="#5B70CD" opacity="1.000000" stroke="none" 
	d="
M227.126938,139.160248 
	C227.306473,139.109940 227.614899,139.281891 228.001251,139.717346 
	C227.804733,139.781403 227.530273,139.581940 227.126938,139.160248 
z"/>
<path fill="#AAAAFF" opacity="1.000000" stroke="none" 
	d="
M221.522568,109.915237 
	C224.651810,109.572784 228.241165,109.085953 231.832825,109.068123 
	C239.986145,109.027626 248.140610,109.217873 256.606506,109.583023 
	C245.273499,109.895752 233.628616,109.939774 221.522568,109.915237 
z"/>
<path fill="#4967D8" opacity="1.000000" stroke="none" 
	d="
M87.507607,36.912903 
	C87.759529,37.165573 87.545319,37.440048 87.132812,37.886642 
	C66.609940,38.043369 46.285381,38.027977 25.495880,38.021400 
	C25.019384,37.849770 25.007830,37.669323 24.983988,37.217354 
	C45.661625,36.942120 66.351547,36.938412 87.507607,36.912903 
z"/>
</svg>