<?xml version="1.0" encoding="UTF-8"?>
<!DOCTYPE svg PUBLIC "-//W3C//DTD SVG 1.1//EN" "http://www.w3.org/Graphics/SVG/1.1/DTD/svg11.dtd">
<svg xmlns="http://www.w3.org/2000/svg" version="1.1" width="329px" height="247px" style="shape-rendering:geometricPrecision; text-rendering:geometricPrecision; image-rendering:optimizeQuality; fill-rule:evenodd; clip-rule:evenodd" xmlns:xlink="http://www.w3.org/1999/xlink">
<g><path style="opacity:0.902" fill="#6a7bd3" d="M 68.5,-0.5 C 68.8333,-0.5 69.1667,-0.5 69.5,-0.5C 72.4338,4.3682 75.1005,9.3682 77.5,14.5C 76.5416,14.0472 75.7083,13.3805 75,12.5C 74.6667,12.8333 74.3333,13.1667 74,13.5C 72.3839,8.62403 70.5506,3.95736 68.5,-0.5 Z"/></g>
<g><path style="opacity:1" fill="#5270fc" d="M 93.5,-0.5 C 171.5,-0.5 249.5,-0.5 327.5,-0.5C 327.5,0.833333 327.5,2.16667 327.5,3.5C 325.61,3.7035 324.11,3.03683 323,1.5C 323.152,3.5185 323.652,5.5185 324.5,7.5C 323.127,7.34332 321.793,7.50999 320.5,8C 319.816,9.69337 318.816,11.1934 317.5,12.5C 318.309,14.0709 318.643,15.7376 318.5,17.5C 314.825,19.8388 312.825,23.1721 312.5,27.5C 311.5,27.5 310.5,27.5 309.5,27.5C 308.546,31.3234 306.712,34.6567 304,37.5C 303.495,39.5183 302.995,41.5183 302.5,43.5C 300.883,44.038 299.216,44.3713 297.5,44.5C 297.5,46.8333 297.5,49.1667 297.5,51.5C 295.75,52.7417 294.083,54.2417 292.5,56C 291.552,56.4828 290.552,56.6495 289.5,56.5C 289.492,59.5448 289.159,62.5448 288.5,65.5C 285.547,66.7872 283.214,68.7872 281.5,71.5C 280.596,72.209 280.263,73.209 280.5,74.5C 279.5,74.5 278.5,74.5 277.5,74.5C 277.785,76.288 277.452,77.9547 276.5,79.5C 275.264,78.7542 273.93,78.4208 272.5,78.5C 271.491,81.0486 270.658,83.7152 270,86.5C 268.989,85.6634 267.822,85.33 266.5,85.5C 266.5,87.1667 266.5,88.8333 266.5,90.5C 264.571,90.2308 262.905,90.7308 261.5,92C 263.838,93.5082 264.838,95.6748 264.5,98.5C 263.5,98.5 262.5,98.5 261.5,98.5C 261.236,101.757 259.57,103.757 256.5,104.5C 256.648,101.163 257.982,98.33 260.5,96C 259.241,94.3977 257.908,94.5643 256.5,96.5C 254.945,98.943 254.278,101.61 254.5,104.5C 243.162,104.667 231.828,104.5 220.5,104C 216.911,103.793 213.411,103.293 210,102.5C 208.416,103.861 206.582,104.528 204.5,104.5C 204.034,108.708 205.367,112.208 208.5,115C 207.968,117.02 206.635,117.853 204.5,117.5C 204.238,118.978 204.571,120.311 205.5,121.5C 206.833,120.167 208.167,120.167 209.5,121.5C 210.001,119.345 211.001,117.678 212.5,116.5C 215.732,125.292 220.732,132.958 227.5,139.5C 228.338,139.842 228.672,140.508 228.5,141.5C 228.551,144.541 229.551,147.208 231.5,149.5C 229.667,153.085 228,156.752 226.5,160.5C 226.672,161.492 226.338,162.158 225.5,162.5C 222.155,164.02 220.489,166.687 220.5,170.5C 219.5,170.5 218.5,170.5 217.5,170.5C 216.514,173.493 215.514,176.493 214.5,179.5C 211.231,181.114 209.564,183.781 209.5,187.5C 209.672,188.492 209.338,189.158 208.5,189.5C 207.5,189.5 206.5,189.5 205.5,189.5C 205.5,190.5 205.5,191.5 205.5,192.5C 204.178,192.67 203.011,192.337 202,191.5C 202.135,193.425 202.302,195.425 202.5,197.5C 200.801,197.34 199.134,197.506 197.5,198C 195.589,200.543 193.589,203.043 191.5,205.5C 190.833,204.167 190.167,202.833 189.5,201.5C 189.847,205.441 189.847,209.441 189.5,213.5C 188.201,212.91 187.368,211.91 187,210.5C 186.215,212.286 185.049,213.786 183.5,215C 184.956,215.423 185.456,216.256 185,217.5C 183.89,219.037 182.39,219.703 180.5,219.5C 180.36,221.124 181.027,222.29 182.5,223C 180.564,223.813 178.564,224.313 176.5,224.5C 177.016,229.703 175.35,231.036 171.5,228.5C 170.224,229.614 170.224,230.614 171.5,231.5C 171.342,234.361 172.008,237.028 173.5,239.5C 172.023,241.639 171.023,243.972 170.5,246.5C 169.833,246.5 169.167,246.5 168.5,246.5C 167.168,245.17 166.335,243.503 166,241.5C 163.816,239.712 161.649,238.046 159.5,236.5C 157.975,234.784 156.975,232.784 156.5,230.5C 156.762,229.022 156.429,227.689 155.5,226.5C 154.039,224.53 152.373,222.863 150.5,221.5C 150.5,218.833 150.5,216.167 150.5,213.5C 147.512,213.671 145.512,212.338 144.5,209.5C 143.893,209.624 143.56,209.957 143.5,210.5C 142.833,210.5 142.5,210.167 142.5,209.5C 141.949,206.193 141.616,202.86 141.5,199.5C 139.435,199.483 137.435,199.15 135.5,198.5C 135.804,197.85 136.137,197.183 136.5,196.5C 134.08,194.047 132.914,191.047 133,187.5C 130.803,185.97 129.97,184.136 130.5,182C 128.714,181.804 127.381,180.971 126.5,179.5C 115.52,178.501 104.52,178.168 93.5,178.5C 87.955,169.955 83.2883,160.955 79.5,151.5C 78.343,149.862 77.1764,148.196 76,146.5C 75.2797,144.888 75.4464,143.388 76.5,142C 98.8408,141.167 121.174,141.334 143.5,142.5C 148.886,148.878 154.219,155.211 159.5,161.5C 160.338,161.842 160.672,162.508 160.5,163.5C 161.78,168.595 164.113,173.095 167.5,177C 169.35,176.405 171.35,175.905 173.5,175.5C 174.167,172.5 174.833,169.5 175.5,166.5C 177.727,165.599 178.727,163.933 178.5,161.5C 178.5,160.833 178.833,160.5 179.5,160.5C 183.108,157.722 185.442,154.055 186.5,149.5C 186.36,147.97 185.693,146.97 184.5,146.5C 183.833,145.167 183.167,143.833 182.5,142.5C 181.544,139.561 179.877,137.228 177.5,135.5C 176.248,133.999 175.248,132.332 174.5,130.5C 174.416,127.318 173.083,124.985 170.5,123.5C 169.513,120.854 168.513,118.188 167.5,115.5C 165.282,114.076 163.782,112.076 163,109.5C 162.329,108.748 161.496,108.414 160.5,108.5C 155.495,107.989 150.495,106.989 145.5,105.5C 141.145,99.6396 138.645,93.3062 138,86.5C 137.577,87.9561 136.744,88.4561 135.5,88C 134.115,84.6711 132.448,81.5045 130.5,78.5C 129.583,77.8728 128.583,77.5394 127.5,77.5C 127.5,77.1667 127.5,76.8333 127.5,76.5C 126.833,73.8333 126.167,71.1667 125.5,68.5C 126.5,68.5 127.5,68.5 128.5,68.5C 130.201,69.7342 132.201,70.4008 134.5,70.5C 151.969,69.7495 169.136,69.4162 186,69.5C 190.637,69.3692 195.137,70.0359 199.5,71.5C 201.638,70.7569 203.804,70.0903 206,69.5C 217.872,70.9662 229.705,70.7996 241.5,69C 242.252,68.3292 242.586,67.4959 242.5,66.5C 243.167,64.1667 243.833,61.8333 244.5,59.5C 244.5,59.1667 244.5,58.8333 244.5,58.5C 248.214,56.1074 250.881,52.774 252.5,48.5C 254.229,47.8825 255.729,46.8825 257,45.5C 257.24,43.1484 258.073,41.1484 259.5,39.5C 261.539,38.089 262.539,36.089 262.5,33.5C 211.092,33.9941 159.759,34.3274 108.5,34.5C 107.012,32.8507 106.012,30.8507 105.5,28.5C 104.264,29.2458 102.93,29.5792 101.5,29.5C 101.246,25.1839 102.246,21.1839 104.5,17.5C 104.167,16.8333 103.833,16.1667 103.5,15.5C 102.542,17.6239 101.375,19.6239 100,21.5C 98.1294,20.0027 97.1294,18.0027 97,15.5C 96,14.8333 95,14.1667 94,13.5C 94.2273,11.4259 94.0606,9.42585 93.5,7.5C 92.0095,6.75638 90.5095,6.08971 89,5.5C 88.2506,4.36495 88.4173,3.36495 89.5,2.5C 91.261,1.96486 92.5943,0.964857 93.5,-0.5 Z"/></g>
<g><path style="opacity:1" fill="#5c72e3" d="M 327.5,-0.5 C 327.833,-0.5 328.167,-0.5 328.5,-0.5C 328.5,1.5 328.5,3.5 328.5,5.5C 325.013,9.14222 322.013,13.1422 319.5,17.5C 319.167,17.5 318.833,17.5 318.5,17.5C 318.643,15.7376 318.309,14.0709 317.5,12.5C 318.816,11.1934 319.816,9.69337 320.5,8C 321.793,7.50999 323.127,7.34332 324.5,7.5C 323.652,5.5185 323.152,3.5185 323,1.5C 324.11,3.03683 325.61,3.7035 327.5,3.5C 327.5,2.16667 327.5,0.833333 327.5,-0.5 Z"/></g>
<g><path style="opacity:0.686" fill="#7782d6" d="M 318.5,17.5 C 318.833,17.5 319.167,17.5 319.5,17.5C 314.328,26.5166 308.661,35.1833 302.5,43.5C 302.995,41.5183 303.495,39.5183 304,37.5C 306.712,34.6567 308.546,31.3234 309.5,27.5C 310.5,27.5 311.5,27.5 312.5,27.5C 312.825,23.1721 314.825,19.8388 318.5,17.5 Z"/></g>
<g><path style="opacity:0.929" fill="#737cd2" d="M 89.5,10.5 C 90.5,10.5 91.5,10.5 92.5,10.5C 93.4381,15.0429 95.4381,19.0429 98.5,22.5C 99.6348,24.7067 100.301,27.0401 100.5,29.5C 96.5959,23.3657 92.9292,17.0323 89.5,10.5 Z"/></g>
<g><path style="opacity:0.992" fill="#6c7ce3" d="M 8.5,17.5 C 11.0867,18.6376 13.0867,20.4709 14.5,23C 15.448,23.4828 16.448,23.6495 17.5,23.5C 18.0916,26.1272 18.4249,28.7938 18.5,31.5C 14.8108,27.1352 11.4775,22.4685 8.5,17.5 Z"/></g>
<g><path style="opacity:1" fill="#5270fb" d="M -0.5,-0.5 C 22.5,-0.5 45.5,-0.5 68.5,-0.5C 70.5506,3.95736 72.3839,8.62403 74,13.5C 74.3333,13.1667 74.6667,12.8333 75,12.5C 75.7083,13.3805 76.5416,14.0472 77.5,14.5C 79.588,16.3356 80.9213,18.6689 81.5,21.5C 80.828,24.9079 81.828,27.5745 84.5,29.5C 85.7472,31.323 86.4139,33.323 86.5,35.5C 65.1641,35.6666 43.8307,35.5 22.5,35C 21.5291,33.5187 20.1958,32.6854 18.5,32.5C 18.5,32.1667 18.5,31.8333 18.5,31.5C 18.4249,28.7938 18.0916,26.1272 17.5,23.5C 16.448,23.6495 15.448,23.4828 14.5,23C 13.0867,20.4709 11.0867,18.6376 8.5,17.5C 5.85729,12.8679 2.85729,8.5346 -0.5,4.5C -0.5,2.83333 -0.5,1.16667 -0.5,-0.5 Z"/></g>
<g><path style="opacity:0.996" fill="#5270f3" d="M 83.5,-0.5 C 86.8333,-0.5 90.1667,-0.5 93.5,-0.5C 92.5943,0.964857 91.261,1.96486 89.5,2.5C 88.4173,3.36495 88.2506,4.36495 89,5.5C 90.5095,6.08971 92.0095,6.75638 93.5,7.5C 94.0606,9.42585 94.2273,11.4259 94,13.5C 95,14.1667 96,14.8333 97,15.5C 97.1294,18.0027 98.1294,20.0027 100,21.5C 101.375,19.6239 102.542,17.6239 103.5,15.5C 103.833,16.1667 104.167,16.8333 104.5,17.5C 102.246,21.1839 101.246,25.1839 101.5,29.5C 102.93,29.5792 104.264,29.2458 105.5,28.5C 106.012,30.8507 107.012,32.8507 108.5,34.5C 159.759,34.3274 211.092,33.9941 262.5,33.5C 262.539,36.089 261.539,38.089 259.5,39.5C 259.33,38.1779 259.663,37.0113 260.5,36C 208.834,35.5 157.168,35.3333 105.5,35.5C 104.811,32.8106 103.144,31.1439 100.5,30.5C 100.5,30.1667 100.5,29.8333 100.5,29.5C 100.301,27.0401 99.6348,24.7067 98.5,22.5C 95.4381,19.0429 93.4381,15.0429 92.5,10.5C 91.5,10.5 90.5,10.5 89.5,10.5C 87.5,6.83333 85.5,3.16667 83.5,-0.5 Z"/></g>
<g><path style="opacity:0.849" fill="#516ad7" d="M 81.5,21.5 C 83.9998,24.4937 85.9998,27.827 87.5,31.5C 87.5,33.1667 87.5,34.8333 87.5,36.5C 65.5,36.5 43.5,36.5 21.5,36.5C 20.5,35.1667 19.5,33.8333 18.5,32.5C 20.1958,32.6854 21.5291,33.5187 22.5,35C 43.8307,35.5 65.1641,35.6666 86.5,35.5C 86.4139,33.323 85.7472,31.323 84.5,29.5C 81.828,27.5745 80.828,24.9079 81.5,21.5 Z"/></g>
<g><path style="opacity:0.853" fill="#4f69db" d="M 105.5,35.5 C 157.168,35.3333 208.834,35.5 260.5,36C 259.663,37.0113 259.33,38.1779 259.5,39.5C 258.073,41.1484 257.24,43.1484 257,45.5C 255.729,46.8825 254.229,47.8825 252.5,48.5C 253.607,44.9523 255.274,41.6189 257.5,38.5C 257.376,37.8933 257.043,37.56 256.5,37.5C 206.167,36.8333 155.833,36.1667 105.5,35.5 Z"/></g>
<g><path style="opacity:0.282" fill="#6e83d2" d="M 87.5,31.5 C 89.0739,33.1016 89.7406,35.1016 89.5,37.5C 88.3115,38.0476 87.1448,38.3809 86,38.5C 64.4022,37.8385 42.9022,37.1718 21.5,36.5C 43.5,36.5 65.5,36.5 87.5,36.5C 87.5,34.8333 87.5,33.1667 87.5,31.5 Z"/></g>
<g><path style="opacity:0.294" fill="#7388d9" d="M 100.5,30.5 C 103.144,31.1439 104.811,32.8106 105.5,35.5C 155.833,36.1667 206.167,36.8333 256.5,37.5C 206.928,37.1694 157.428,37.5027 108,38.5C 104.38,36.9612 101.88,34.2945 100.5,30.5 Z"/></g>
<g><path style="opacity:0.004" fill="#fefffe" d="M 89.5,37.5 C 90.8333,38.1667 90.8333,38.1667 89.5,37.5 Z"/></g>
<g><path style="opacity:0.98" fill="#7881dd" d="M 302.5,43.5 C 301.331,46.5113 299.664,49.178 297.5,51.5C 297.5,49.1667 297.5,46.8333 297.5,44.5C 299.216,44.3713 300.883,44.038 302.5,43.5 Z"/></g>
<g><path style="opacity:0.416" fill="#6b7acf" d="M 252.5,48.5 C 250.881,52.774 248.214,56.1074 244.5,58.5C 246.817,54.8536 249.484,51.5203 252.5,48.5 Z"/></g>
<g><path style="opacity:1" fill="#637bd7" d="M 297.5,51.5 C 294.985,56.543 291.985,61.2096 288.5,65.5C 289.159,62.5448 289.492,59.5448 289.5,56.5C 290.552,56.6495 291.552,56.4828 292.5,56C 294.083,54.2417 295.75,52.7417 297.5,51.5 Z"/></g>
<g><path style="opacity:0.737" fill="#8693dc" d="M 244.5,59.5 C 243.833,61.8333 243.167,64.1667 242.5,66.5C 241.609,67.1098 240.609,67.4431 239.5,67.5C 240.383,64.2957 242.05,61.6291 244.5,59.5 Z"/></g>
<g><path style="opacity:0.118" fill="#a9b9fa" d="M 84.5,67.5 C 68.6754,68.4964 52.6754,68.8297 36.5,68.5C 36.5,69.5 36.5,70.5 36.5,71.5C 35.5655,70.4324 35.2322,69.099 35.5,67.5C 51.6733,67.417 68.0067,67.417 84.5,67.5 Z"/></g>
<g><path style="opacity:0.063" fill="#9fadf3" d="M 88.5,67.5 C 94.8421,67.3338 101.175,67.5005 107.5,68C 109.376,68.9184 110.376,70.4184 110.5,72.5C 108.988,70.6833 106.988,69.6833 104.5,69.5C 99.1667,68.8333 93.8333,68.1667 88.5,67.5 Z"/></g>
<g><path style="opacity:0.102" fill="#697cd5" d="M 219.5,67.5 C 192.833,68.8333 166.167,68.8333 139.5,67.5C 166.026,67.0944 192.693,67.0944 219.5,67.5 Z"/></g>
<g><path style="opacity:0.592" fill="#546ad0" d="M 84.5,67.5 C 85.8333,67.5 87.1667,67.5 88.5,67.5C 93.8333,68.1667 99.1667,68.8333 104.5,69.5C 82.4309,69.5814 60.4309,69.5814 38.5,69.5C 38.8333,71.5 39.1667,73.5 39.5,75.5C 38.0256,74.5637 37.0256,73.2303 36.5,71.5C 36.5,70.5 36.5,69.5 36.5,68.5C 52.6754,68.8297 68.6754,68.4964 84.5,67.5 Z"/></g>
<g><path style="opacity:0.282" fill="#838cd6" d="M 132.5,67.5 C 131.432,68.4345 130.099,68.7678 128.5,68.5C 127.5,68.5 126.5,68.5 125.5,68.5C 126.167,71.1667 126.833,73.8333 127.5,76.5C 119.621,68.1307 121.288,65.1307 132.5,67.5 Z"/></g>
<g><path style="opacity:0.564" fill="#566bdf" d="M 242.5,66.5 C 242.586,67.4959 242.252,68.3292 241.5,69C 229.705,70.7996 217.872,70.9662 206,69.5C 203.804,70.0903 201.638,70.7569 199.5,71.5C 195.137,70.0359 190.637,69.3692 186,69.5C 169.136,69.4162 151.969,69.7495 134.5,70.5C 132.201,70.4008 130.201,69.7342 128.5,68.5C 130.099,68.7678 131.432,68.4345 132.5,67.5C 134.833,67.5 137.167,67.5 139.5,67.5C 166.167,68.8333 192.833,68.8333 219.5,67.5C 226.167,67.5 232.833,67.5 239.5,67.5C 240.609,67.4431 241.609,67.1098 242.5,66.5 Z"/></g>
<g><path style="opacity:0.729" fill="#7381d5" d="M 288.5,65.5 C 286.938,69.3918 284.605,72.7251 281.5,75.5C 281.5,74.1667 281.5,72.8333 281.5,71.5C 283.214,68.7872 285.547,66.7872 288.5,65.5 Z"/></g>
<g><path style="opacity:1" fill="#5270fb" d="M 104.5,69.5 C 106.988,69.6833 108.988,70.6833 110.5,72.5C 110.872,76.6548 111.872,80.6548 113.5,84.5C 114.736,85.2458 116.07,85.5792 117.5,85.5C 118.89,86.8993 119.89,88.5659 120.5,90.5C 121.187,95.0435 122.854,99.2102 125.5,103C 125.355,103.772 125.022,104.439 124.5,105C 122.833,105.333 121.167,105.667 119.5,106C 100.158,106.833 80.8247,106.666 61.5,105.5C 59.8915,102.937 57.7249,100.937 55,99.5C 54.9428,97.0898 53.7761,95.7565 51.5,95.5C 50.3263,94.4863 49.6596,93.153 49.5,91.5C 47.2806,86.2376 45.1139,80.9043 43,75.5C 42.0138,76.1712 40.8471,76.1712 39.5,75.5C 39.1667,73.5 38.8333,71.5 38.5,69.5C 60.4309,69.5814 82.4309,69.5814 104.5,69.5 Z"/></g>
<g><path style="opacity:0.278" fill="#8b95db" d="M 281.5,75.5 C 280.502,79.5055 278.502,82.8388 275.5,85.5C 276.562,82.4819 277.729,79.4819 279,76.5C 279.671,75.7476 280.504,75.4142 281.5,75.5 Z"/></g>
<g><path style="opacity:0.827" fill="#6d7ad8" d="M 39.5,75.5 C 40.8471,76.1712 42.0138,76.1712 43,75.5C 45.1139,80.9043 47.2806,86.2376 49.5,91.5C 45.8053,86.4551 42.4719,81.1218 39.5,75.5 Z"/></g>
<g><path style="opacity:1" fill="#6f7bdf" d="M 110.5,72.5 C 113.593,76.3472 115.926,80.6805 117.5,85.5C 116.07,85.5792 114.736,85.2458 113.5,84.5C 111.872,80.6548 110.872,76.6548 110.5,72.5 Z"/></g>
<g><path style="opacity:1" fill="#7381dc" d="M 127.5,77.5 C 128.583,77.5394 129.583,77.8728 130.5,78.5C 132.448,81.5045 134.115,84.6711 135.5,88C 136.744,88.4561 137.577,87.9561 138,86.5C 138.645,93.3062 141.145,99.6396 145.5,105.5C 150.495,106.989 155.495,107.989 160.5,108.5C 155.103,108.785 149.77,108.451 144.5,107.5C 138.453,97.6637 132.786,87.6637 127.5,77.5 Z"/></g>
<g><path style="opacity:0.541" fill="#6f7ed8" d="M 275.5,85.5 C 273.745,88.6803 271.745,91.6803 269.5,94.5C 269.112,89.8909 271.112,86.8909 275.5,85.5 Z"/></g>
<g><path style="opacity:0.725" fill="#7983d7" d="M 269.5,94.5 C 267.582,99.3434 264.916,103.677 261.5,107.5C 261.5,106.5 261.5,105.5 261.5,104.5C 263.917,101.656 265.251,98.3229 265.5,94.5C 266.833,94.5 268.167,94.5 269.5,94.5 Z"/></g>
<g><path style="opacity:0.999" fill="#526ff0" d="M 281.5,71.5 C 281.5,72.8333 281.5,74.1667 281.5,75.5C 280.504,75.4142 279.671,75.7476 279,76.5C 277.729,79.4819 276.562,82.4819 275.5,85.5C 271.112,86.8909 269.112,89.8909 269.5,94.5C 268.167,94.5 266.833,94.5 265.5,94.5C 265.251,98.3229 263.917,101.656 261.5,104.5C 243.895,106.139 226.229,107.139 208.5,107.5C 207.285,108.779 207.618,109.779 209.5,110.5C 211.245,112.033 212.245,114.033 212.5,116.5C 211.001,117.678 210.001,119.345 209.5,121.5C 208.167,120.167 206.833,120.167 205.5,121.5C 204.571,120.311 204.238,118.978 204.5,117.5C 206.635,117.853 207.968,117.02 208.5,115C 205.367,112.208 204.034,108.708 204.5,104.5C 206.582,104.528 208.416,103.861 210,102.5C 213.411,103.293 216.911,103.793 220.5,104C 231.828,104.5 243.162,104.667 254.5,104.5C 254.278,101.61 254.945,98.943 256.5,96.5C 257.908,94.5643 259.241,94.3977 260.5,96C 257.982,98.33 256.648,101.163 256.5,104.5C 259.57,103.757 261.236,101.757 261.5,98.5C 262.5,98.5 263.5,98.5 264.5,98.5C 264.838,95.6748 263.838,93.5082 261.5,92C 262.905,90.7308 264.571,90.2308 266.5,90.5C 266.5,88.8333 266.5,87.1667 266.5,85.5C 267.822,85.33 268.989,85.6634 270,86.5C 270.658,83.7152 271.491,81.0486 272.5,78.5C 273.93,78.4208 275.264,78.7542 276.5,79.5C 277.452,77.9547 277.785,76.288 277.5,74.5C 278.5,74.5 279.5,74.5 280.5,74.5C 280.263,73.209 280.596,72.209 281.5,71.5 Z"/></g>
<g><path style="opacity:0.561" fill="#687acb" d="M 120.5,90.5 C 124.367,95.5656 127.701,101.066 130.5,107C 129.833,107.333 129.167,107.667 128.5,108C 105.5,108.667 82.5,108.667 59.5,108C 56.4484,104.059 53.7817,99.8928 51.5,95.5C 53.7761,95.7565 54.9428,97.0898 55,99.5C 57.7249,100.937 59.8915,102.937 61.5,105.5C 80.8247,106.666 100.158,106.833 119.5,106C 121.167,105.667 122.833,105.333 124.5,105C 125.022,104.439 125.355,103.772 125.5,103C 122.854,99.2102 121.187,95.0435 120.5,90.5 Z"/></g>
<g><path style="opacity:0.557" fill="#485dbf" d="M 261.5,104.5 C 261.5,105.5 261.5,106.5 261.5,107.5C 261.5,108.167 261.167,108.5 260.5,108.5C 243.341,107.503 226.008,107.17 208.5,107.5C 226.229,107.139 243.895,106.139 261.5,104.5 Z"/></g>
<g><path style="opacity:0.012" fill="#a9a9f4" d="M 208.5,107.5 C 226.008,107.17 243.341,107.503 260.5,108.5C 243.134,107.848 226.134,108.514 209.5,110.5C 207.618,109.779 207.285,108.779 208.5,107.5 Z"/></g>
<g><path style="opacity:0.314" fill="#7383d4" d="M 160.5,108.5 C 161.496,108.414 162.329,108.748 163,109.5C 163.782,112.076 165.282,114.076 167.5,115.5C 168.513,118.188 169.513,120.854 170.5,123.5C 166.932,118.709 163.598,113.709 160.5,108.5 Z"/></g>
<g><path style="opacity:0.765" fill="#828ed5" d="M 170.5,123.5 C 173.083,124.985 174.416,127.318 174.5,130.5C 172.412,128.664 171.079,126.331 170.5,123.5 Z"/></g>
<g><path style="opacity:0.859" fill="#6e7fd9" d="M 212.5,116.5 C 218.704,123.372 223.704,131.039 227.5,139.5C 220.732,132.958 215.732,125.292 212.5,116.5 Z"/></g>
<g><path style="opacity:0.035" fill="#a1a8dc" d="M 177.5,135.5 C 179.877,137.228 181.544,139.561 182.5,142.5C 180.11,140.733 178.443,138.4 177.5,135.5 Z"/></g>
<g><path style="opacity:0.714" fill="#6275d0" d="M 159.5,161.5 C 154.219,155.211 148.886,148.878 143.5,142.5C 121.174,141.334 98.8408,141.167 76.5,142C 75.4464,143.388 75.2797,144.888 76,146.5C 77.1764,148.196 78.343,149.862 79.5,151.5C 78.391,151.443 77.391,151.11 76.5,150.5C 74.2879,146.741 72.6213,142.741 71.5,138.5C 96.1366,139.305 120.803,139.805 145.5,140C 150.81,146.797 155.477,153.964 159.5,161.5 Z"/></g>
<g><path style="opacity:0.592" fill="#6d7dd0" d="M 228.5,141.5 C 230.966,143.74 232.966,146.407 234.5,149.5C 232.546,153.766 229.879,157.433 226.5,160.5C 228,156.752 229.667,153.085 231.5,149.5C 229.551,147.208 228.551,144.541 228.5,141.5 Z"/></g>
<g><path style="opacity:0.898" fill="#6b7ace" d="M 184.5,146.5 C 185.693,146.97 186.36,147.97 186.5,149.5C 185.442,154.055 183.108,157.722 179.5,160.5C 181.879,156.909 183.879,153.076 185.5,149C 185.257,148.098 184.923,147.265 184.5,146.5 Z"/></g>
<g><path style="opacity:0.275" fill="#8e98db" d="M 76.5,150.5 C 77.391,151.11 78.391,151.443 79.5,151.5C 83.2883,160.955 87.955,169.955 93.5,178.5C 94.1667,179.167 94.8333,179.833 95.5,180.5C 93.6096,180.703 92.1096,180.037 91,178.5C 85.9008,169.302 81.0675,159.968 76.5,150.5 Z"/></g>
<g><path style="opacity:0.251" fill="#838bd2" d="M 178.5,161.5 C 178.727,163.933 177.727,165.599 175.5,166.5C 175.75,164.326 176.75,162.659 178.5,161.5 Z"/></g>
<g><path style="opacity:0.659" fill="#7781db" d="M 225.5,162.5 C 224.617,165.704 222.95,168.371 220.5,170.5C 220.489,166.687 222.155,164.02 225.5,162.5 Z"/></g>
<g><path style="opacity:1" fill="#6877db" d="M 160.5,163.5 C 163.557,167.258 166.39,171.258 169,175.5C 170.699,172.079 172.865,169.079 175.5,166.5C 174.833,169.5 174.167,172.5 173.5,175.5C 171.35,175.905 169.35,176.405 167.5,177C 164.113,173.095 161.78,168.595 160.5,163.5 Z"/></g>
<g><path style="opacity:0.447" fill="#7d88d6" d="M 220.5,170.5 C 219.241,174.025 217.241,177.025 214.5,179.5C 215.514,176.493 216.514,173.493 217.5,170.5C 218.5,170.5 219.5,170.5 220.5,170.5 Z"/></g>
<g><path style="opacity:1" fill="#7f87e3" d="M 93.5,178.5 C 104.52,178.168 115.52,178.501 126.5,179.5C 127.381,180.971 128.714,181.804 130.5,182C 129.97,184.136 130.803,185.97 133,187.5C 132.914,191.047 134.08,194.047 136.5,196.5C 136.137,197.183 135.804,197.85 135.5,198.5C 131.646,192.646 127.646,186.813 123.5,181C 114.173,180.5 104.839,180.334 95.5,180.5C 94.8333,179.833 94.1667,179.167 93.5,178.5 Z"/></g>
<g><path style="opacity:0.114" fill="#7d87cf" d="M 214.5,179.5 C 213.331,182.511 211.664,185.178 209.5,187.5C 209.564,183.781 211.231,181.114 214.5,179.5 Z"/></g>
<g><path style="opacity:0.997" fill="#6378de" d="M 135.5,198.5 C 137.435,199.15 139.435,199.483 141.5,199.5C 141.616,202.86 141.949,206.193 142.5,209.5C 139.931,206.039 137.597,202.372 135.5,198.5 Z"/></g>
<g><path style="opacity:1" fill="#6674db" d="M 150.5,221.5 C 147.421,218.35 145.087,214.683 143.5,210.5C 143.56,209.957 143.893,209.624 144.5,209.5C 145.512,212.338 147.512,213.671 150.5,213.5C 150.5,216.167 150.5,218.833 150.5,221.5 Z"/></g>
<g><path style="opacity:1" fill="#5471f3" d="M 208.5,189.5 C 205.079,195.345 201.413,201.012 197.5,206.5C 193.437,207.567 191.104,210.234 190.5,214.5C 186.701,216.803 184.534,220.136 184,224.5C 182.526,227.325 181.026,227.658 179.5,225.5C 178.434,229.009 177.434,232.509 176.5,236C 175.167,236.667 173.833,236.667 172.5,236C 173.553,234.251 173.22,232.751 171.5,231.5C 170.224,230.614 170.224,229.614 171.5,228.5C 175.35,231.036 177.016,229.703 176.5,224.5C 178.564,224.313 180.564,223.813 182.5,223C 181.027,222.29 180.36,221.124 180.5,219.5C 182.39,219.703 183.89,219.037 185,217.5C 185.456,216.256 184.956,215.423 183.5,215C 185.049,213.786 186.215,212.286 187,210.5C 187.368,211.91 188.201,212.91 189.5,213.5C 189.847,209.441 189.847,205.441 189.5,201.5C 190.167,202.833 190.833,204.167 191.5,205.5C 193.589,203.043 195.589,200.543 197.5,198C 199.134,197.506 200.801,197.34 202.5,197.5C 202.302,195.425 202.135,193.425 202,191.5C 203.011,192.337 204.178,192.67 205.5,192.5C 205.5,191.5 205.5,190.5 205.5,189.5C 206.5,189.5 207.5,189.5 208.5,189.5 Z"/></g>
<g><path style="opacity:0.576" fill="#7582d7" d="M 150.5,221.5 C 152.373,222.863 154.039,224.53 155.5,226.5C 156.429,227.689 156.762,229.022 156.5,230.5C 153.759,228.025 151.759,225.025 150.5,221.5 Z"/></g>
<g><path style="opacity:1" fill="#6275e0" d="M 197.5,206.5 C 189.167,219.833 180.833,233.167 172.5,246.5C 171.833,246.5 171.167,246.5 170.5,246.5C 171.023,243.972 172.023,241.639 173.5,239.5C 172.008,237.028 171.342,234.361 171.5,231.5C 173.22,232.751 173.553,234.251 172.5,236C 173.833,236.667 175.167,236.667 176.5,236C 177.434,232.509 178.434,229.009 179.5,225.5C 181.026,227.658 182.526,227.325 184,224.5C 184.534,220.136 186.701,216.803 190.5,214.5C 191.104,210.234 193.437,207.567 197.5,206.5 Z"/></g>
<g><path style="opacity:0.898" fill="#7181d8" d="M 159.5,236.5 C 161.649,238.046 163.816,239.712 166,241.5C 166.335,243.503 167.168,245.17 168.5,246.5C 167.5,246.5 166.5,246.5 165.5,246.5C 163.5,243.167 161.5,239.833 159.5,236.5 Z"/></g>
</svg>
