<?xml version="1.0" standalone="no"?>
<!DOCTYPE svg PUBLIC "-//W3C//DTD SVG 20010904//EN"
 "http://www.w3.org/TR/2001/REC-SVG-20010904/DTD/svg10.dtd">
<svg version="1.0" xmlns="http://www.w3.org/2000/svg"
 width="559.000000pt" height="447.000000pt" viewBox="0 0 559.000000 447.000000"
 preserveAspectRatio="xMidYMid meet">

<g transform="translate(0.000000,447.000000) scale(0.100000,-0.100000)"
fill="#430ed4" stroke="none">
<path d="M1145 3470 c88 -134 113 -169 120 -162 4 4 5 2 2 -4 -4 -6 16 -43 43
-82 28 -39 50 -75 50 -80 0 -5 8 -16 18 -24 15 -14 62 -16 335 -15 205 0 317
4 317 10 0 6 -13 31 -29 56 -16 25 -56 95 -90 155 -34 59 -68 118 -76 130 -15
21 -19 21 -354 21 -187 0 -338 -2 -336 -5z"/>
<path d="M2025 3470 c-12 -4 -6 -20 26 -75 23 -39 66 -116 96 -172 30 -57 59
-106 64 -109 6 -3 354 -7 775 -9 421 -1 768 -5 771 -8 3 -3 -15 -37 -39 -74
-82 -123 -118 -183 -118 -193 0 -6 -4 -10 -8 -10 -5 0 -14 -11 -20 -25 l-12
-25 -568 0 c-313 0 -571 -3 -574 -6 -3 -3 29 -67 72 -142 42 -75 87 -156 99
-179 l21 -43 79 0 79 0 23 -37 c36 -59 199 -315 220 -345 10 -15 19 -34 19
-42 0 -16 -51 -100 -138 -228 -25 -38 -47 -68 -48 -68 -1 0 -33 48 -70 108
-38 59 -90 137 -116 175 -27 37 -48 72 -48 77 0 6 -126 10 -355 10 -280 0
-355 -3 -355 -13 0 -7 11 -29 25 -49 14 -20 25 -41 25 -46 0 -4 9 -18 20 -30
12 -12 18 -22 16 -22 -11 0 86 -176 106 -192 17 -15 42 -18 167 -19 l146 0 89
-142 c92 -147 152 -241 280 -436 l74 -114 16 31 c9 18 41 68 71 112 30 45 55
85 55 90 0 6 4 10 8 10 5 0 13 10 19 23 6 12 54 90 108 172 147 226 178 273
231 358 27 43 64 100 82 127 17 27 32 55 32 61 0 11 -37 74 -125 209 -23 36
-62 97 -87 135 -25 39 -44 73 -41 78 2 4 125 7 273 7 l268 0 32 53 c18 28 66
104 107 167 196 302 222 344 216 354 -3 6 -2 8 2 3 5 -4 31 28 58 70 28 43 78
121 112 173 120 185 155 240 155 248 0 8 -2392 10 -2415 2z"/>
<path d="M1544 2754 c3 -9 22 -42 42 -73 19 -31 65 -105 103 -166 l68 -110
336 -3 c185 -1 337 1 337 6 0 4 -13 28 -28 53 -15 24 -50 82 -76 129 -27 47
-53 88 -58 91 -6 3 -10 10 -9 15 0 5 -9 24 -19 42 l-19 32 -342 0 c-310 0
-341 -1 -335 -16z"/>
</g>
</svg>
